<svg id="appointment" xmlns="http://www.w3.org/2000/svg" width="54" height="54" viewBox="0 0 54 54">
  <g id="Group_126" data-name="Group 126">
    <g id="Group_125" data-name="Group 125">
      <path id="Path_61" data-name="Path 61" d="M48.727,4.641H43.7V3.164a3.164,3.164,0,1,0-6.328,0V4.641H19.652V3.164a3.164,3.164,0,1,0-6.328,0V4.68a1.052,1.052,0,0,0-.281-.039h-4.2A5.279,5.279,0,0,0,3.567,9.914V27.879a1.055,1.055,0,0,0,2.109,0V15.5H43.7a1.055,1.055,0,0,0,0-2.109H5.677V9.914A3.168,3.168,0,0,1,8.841,6.75h4.2a1.057,1.057,0,0,0,.281-.039V8.068a3.164,3.164,0,1,0,6.328,0V6.75H37.371V8.068a3.164,3.164,0,1,0,6.328,0V6.75h5.027a3.168,3.168,0,0,1,3.164,3.164V49.992a1.9,1.9,0,0,1-3.8,0V47.263a1.055,1.055,0,0,0-1.055-1.055H34.77a1.055,1.055,0,0,0,0,2.109H45.983v1.674a3.984,3.984,0,0,0,.479,1.9H4.008a1.9,1.9,0,0,1-1.9-1.9V48.318H25.716a1.055,1.055,0,1,0,0-2.109H15.178a8.648,8.648,0,1,0-11.27,0H1.055A1.055,1.055,0,0,0,0,47.263v2.729A4.012,4.012,0,0,0,4.008,54H49.992A4.013,4.013,0,0,0,54,49.992V9.914A5.279,5.279,0,0,0,48.727,4.641ZM17.543,8.068a1.055,1.055,0,1,1-2.109,0v-4.9a1.055,1.055,0,1,1,2.109,0Zm24.047,0a1.055,1.055,0,0,1-2.109,0v-4.9a1.055,1.055,0,1,1,2.109,0ZM3,39.656A6.539,6.539,0,1,1,9.543,46.2,6.546,6.546,0,0,1,3,39.656Z" fill="#3cb2f5"/>
    </g>
  </g>
  <g id="Group_128" data-name="Group 128" transform="translate(47.71 13.405)">
    <g id="Group_127" data-name="Group 127">
      <path id="Path_62" data-name="Path 62" d="M453.007,127.3a1.034,1.034,0,1,0,.3.732A1.043,1.043,0,0,0,453.007,127.3Z" transform="translate(-451.24 -127)" fill="#3cb2f5"/>
    </g>
  </g>
  <g id="Group_130" data-name="Group 130" transform="translate(29.72 46.353)">
    <g id="Group_129" data-name="Group 129">
      <path id="Path_63" data-name="Path 63" d="M283.347,438.432a1.036,1.036,0,1,0,.3.732A1.042,1.042,0,0,0,283.347,438.432Z" transform="translate(-281.58 -438.13)" fill="#3cb2f5"/>
    </g>
  </g>
  <g id="Group_132" data-name="Group 132" transform="translate(19.918 32.166)">
    <g id="Group_131" data-name="Group 131">
      <path id="Path_64" data-name="Path 64" d="M192.179,304a3.934,3.934,0,1,0,3.934,3.934A3.938,3.938,0,0,0,192.179,304Zm0,5.8a1.863,1.863,0,1,1,1.863-1.863A1.865,1.865,0,0,1,192.179,309.8Z" transform="translate(-188.245 -304)" fill="#3cb2f5"/>
    </g>
  </g>
  <g id="Group_134" data-name="Group 134" transform="translate(29.794 32.166)">
    <g id="Group_133" data-name="Group 133">
      <path id="Path_65" data-name="Path 65" d="M285.512,304a3.934,3.934,0,1,0,3.934,3.934A3.938,3.938,0,0,0,285.512,304Zm0,5.8a1.863,1.863,0,1,1,1.863-1.863A1.865,1.865,0,0,1,285.512,309.8Z" transform="translate(-281.578 -304)" fill="#3cb2f5"/>
    </g>
  </g>
  <g id="Group_136" data-name="Group 136" transform="translate(39.809 32.166)">
    <g id="Group_135" data-name="Group 135">
      <path id="Path_66" data-name="Path 66" d="M378.846,304a3.934,3.934,0,1,0,3.934,3.934A3.938,3.938,0,0,0,378.846,304Zm0,5.8a1.863,1.863,0,1,1,1.863-1.863A1.865,1.865,0,0,1,378.846,309.8Z" transform="translate(-374.912 -304)" fill="#3cb2f5"/>
    </g>
  </g>
  <g id="Group_138" data-name="Group 138" transform="translate(10.043 21.162)">
    <g id="Group_137" data-name="Group 137">
      <path id="Path_67" data-name="Path 67" d="M98.846,200a3.934,3.934,0,1,0,3.934,3.934A3.938,3.938,0,0,0,98.846,200Zm0,5.8a1.863,1.863,0,1,1,1.863-1.863A1.865,1.865,0,0,1,98.846,205.8Z" transform="translate(-94.912 -200)" fill="#3cb2f5"/>
    </g>
  </g>
  <g id="Group_140" data-name="Group 140" transform="translate(29.794 21.162)">
    <g id="Group_139" data-name="Group 139">
      <path id="Path_68" data-name="Path 68" d="M285.512,200a3.934,3.934,0,1,0,3.934,3.934A3.938,3.938,0,0,0,285.512,200Zm0,5.8a1.863,1.863,0,1,1,1.863-1.863A1.865,1.865,0,0,1,285.512,205.8Z" transform="translate(-281.578 -200)" fill="#3cb2f5"/>
    </g>
  </g>
  <g id="Group_142" data-name="Group 142" transform="translate(39.809 21.162)">
    <g id="Group_141" data-name="Group 141">
      <path id="Path_69" data-name="Path 69" d="M378.846,200a3.934,3.934,0,1,0,3.934,3.934A3.938,3.938,0,0,0,378.846,200Zm0,5.8a1.863,1.863,0,1,1,1.863-1.863A1.865,1.865,0,0,1,378.846,205.8Z" transform="translate(-374.912 -200)" fill="#3cb2f5"/>
    </g>
  </g>
  <g id="Group_144" data-name="Group 144" transform="translate(19.918 21.162)">
    <g id="Group_143" data-name="Group 143">
      <path id="Path_70" data-name="Path 70" d="M192.179,200a3.934,3.934,0,1,0,3.934,3.934A3.938,3.938,0,0,0,192.179,200Zm0,5.8a1.863,1.863,0,1,1,1.863-1.863A1.865,1.865,0,0,1,192.179,205.8Z" transform="translate(-188.245 -200)" fill="#3cb2f5"/>
    </g>
  </g>
  <g id="Group_146" data-name="Group 146" transform="translate(5.299 36.867)">
    <g id="Group_145" data-name="Group 145">
      <path id="Path_71" data-name="Path 71" d="M58.949,349a1.035,1.035,0,0,0-1.464,0l-3.371,3.371-1.152-1.152a1.035,1.035,0,1,0-1.464,1.464l1.884,1.884a1.035,1.035,0,0,0,1.464,0l4.1-4.1A1.035,1.035,0,0,0,58.949,349Z" transform="translate(-51.194 -348.7)" fill="#3cb2f5"/>
    </g>
  </g>
</svg>
