<svg xmlns="http://www.w3.org/2000/svg" width="54.238" height="64" viewBox="0 0 54.238 64">
  <g id="_03_-_taska" data-name="03 - taska" transform="translate(-15.359)">
    <g id="Group_102" data-name="Group 102" transform="translate(34.819)">
      <g id="Group_101" data-name="Group 101" transform="translate(0)">
        <path id="Path_43" data-name="Path 43" d="M93.379,7.908A9.221,9.221,0,0,0,76.8,3.787a1.084,1.084,0,1,0,1.751,1.279A7.052,7.052,0,0,1,91.231,8.214a1.086,1.086,0,0,0,1.073.932,1.162,1.162,0,0,0,.154-.011A1.085,1.085,0,0,0,93.379,7.908Z" transform="translate(-76.593)" fill="#fff"/>
      </g>
    </g>
    <g id="Group_104" data-name="Group 104" transform="translate(17.528 14.101)">
      <g id="Group_103" data-name="Group 103" transform="translate(0)">
        <path id="Path_44" data-name="Path 44" d="M71.929,50.322,68.674,44.9a1.083,1.083,0,0,0-.93-.527H64.626a1.085,1.085,0,0,0,0,2.169h2.5L69.083,49.8h-43.9l1.953-3.254h1.149a1.085,1.085,0,0,0,0-2.169H26.524a1.083,1.083,0,0,0-.93.527l-3.254,5.424a1.085,1.085,0,0,0,.93,1.643H71a1.085,1.085,0,0,0,.93-1.643Z" transform="translate(-22.185 -44.372)" fill="#fff"/>
      </g>
    </g>
    <g id="Group_106" data-name="Group 106" transform="translate(43.955 6.078)">
      <g id="Group_105" data-name="Group 105">
        <path id="Path_45" data-name="Path 45" d="M123.253,23.1a1.083,1.083,0,0,0-.675-.484l-14.787-3.459a1.084,1.084,0,0,0-1.3.809l-1.115,4.767a1.085,1.085,0,0,0,2.112.494l.868-3.71,12.675,2.965-1.992,8.515a1.084,1.084,0,0,0,.809,1.3,1.1,1.1,0,0,0,.249.029,1.083,1.083,0,0,0,1.054-.837l2.239-9.571A1.08,1.08,0,0,0,123.253,23.1Z" transform="translate(-105.343 -19.126)" fill="#fff"/>
      </g>
    </g>
    <g id="Group_108" data-name="Group 108" transform="translate(21.758 3.297)">
      <g id="Group_107" data-name="Group 107" transform="translate(0)">
        <path id="Path_46" data-name="Path 46" d="M56.787,19.691l-.988-8.36a1.085,1.085,0,0,0-1.2-.95L36.451,12.525a1.085,1.085,0,0,0-.95,1.2l1.648,13.943a1.085,1.085,0,0,0,1.076.958,1.185,1.185,0,0,0,.129-.008,1.085,1.085,0,0,0,.95-1.2L37.783,14.552l15.989-1.89.861,7.282a1.085,1.085,0,0,0,2.155-.254Z" transform="translate(-35.494 -10.374)" fill="#fff"/>
      </g>
    </g>
    <g id="Group_110" data-name="Group 110" transform="translate(29.862 10.414)">
      <g id="Group_109" data-name="Group 109" transform="translate(0)">
        <path id="Path_47" data-name="Path 47" d="M82.764,42.553,80.611,33.6a1.084,1.084,0,0,0-1.308-.8L61.828,37a1.085,1.085,0,0,0-.8,1.308L62.1,42.785a1.085,1.085,0,1,0,2.109-.507l-.823-3.421,15.365-3.695,1.9,7.9a1.085,1.085,0,0,0,2.11-.508Z" transform="translate(-60.997 -32.769)" fill="#fff"/>
      </g>
    </g>
    <g id="Group_112" data-name="Group 112" transform="translate(15.359 19.526)">
      <g id="Group_111" data-name="Group 111" transform="translate(0)">
        <path id="Path_48" data-name="Path 48" d="M67.426,62.47a1.085,1.085,0,0,0-1.084-1.029H18.613A1.085,1.085,0,0,0,17.53,62.47l-2.17,42.305a1.084,1.084,0,0,0,1.083,1.14H68.511a1.084,1.084,0,0,0,1.084-1.14ZM17.585,103.746,19.643,63.61H65.311l2.058,40.135Z" transform="translate(-15.359 -61.441)" fill="#fff"/>
      </g>
    </g>
    <g id="Group_114" data-name="Group 114" transform="translate(47.359 23.864)">
      <g id="Group_113" data-name="Group 113" transform="translate(0)">
        <path id="Path_49" data-name="Path 49" d="M119.306,75.093a3.254,3.254,0,1,0,3.254,3.254A3.258,3.258,0,0,0,119.306,75.093Zm0,4.339a1.085,1.085,0,1,1,1.085-1.085A1.086,1.086,0,0,1,119.306,79.432Z" transform="translate(-116.052 -75.093)" fill="#fff"/>
      </g>
    </g>
    <g id="Group_116" data-name="Group 116" transform="translate(31.087 23.864)">
      <g id="Group_115" data-name="Group 115" transform="translate(0)">
        <path id="Path_50" data-name="Path 50" d="M68.106,75.093a3.254,3.254,0,1,0,3.254,3.254A3.258,3.258,0,0,0,68.106,75.093Zm0,4.339a1.085,1.085,0,1,1,1.085-1.085A1.086,1.086,0,0,1,68.106,79.432Z" transform="translate(-64.852 -75.093)" fill="#fff"/>
      </g>
    </g>
    <g id="Group_118" data-name="Group 118" transform="translate(33.257 27.118)">
      <g id="Group_117" data-name="Group 117" transform="translate(0)">
        <path id="Path_51" data-name="Path 51" d="M89.035,85.333h-.084a1.085,1.085,0,0,0-1.085,1.085,1.073,1.073,0,0,0,.084.418v5.548a7.051,7.051,0,0,1-14.1,0V86.418a1.085,1.085,0,1,0-2.169,0v5.966a9.22,9.22,0,1,0,18.44,0V86.418A1.085,1.085,0,0,0,89.035,85.333Z" transform="translate(-71.679 -85.333)" fill="#fff"/>
      </g>
    </g>
  </g>
</svg>
