<svg xmlns="http://www.w3.org/2000/svg" width="64" height="53.314" viewBox="0 0 64 53.314">
  <path id="cordon" d="M61.807,16.025A2.195,2.195,0,0,0,64,13.833V11.114a2.2,2.2,0,0,0-2.192-2.193h-.139a5.773,5.773,0,1,0-9.674,0h-.138a2.2,2.2,0,0,0-2.193,2.193v2.719a2.2,2.2,0,0,0,2.193,2.192H53.32v2.254H51.826a3.78,3.78,0,0,0-1.871.5l-.345.2-.286-.458a2.191,2.191,0,0,0-2.919-.753A30.3,30.3,0,0,1,32,21.155a30.3,30.3,0,0,1-14.406-3.394,2.191,2.191,0,0,0-2.919.753l-.286.458-.344-.2a3.782,3.782,0,0,0-1.871-.5H10.679V16.025h1.465a2.195,2.195,0,0,0,2.192-2.192V11.114a2.2,2.2,0,0,0-2.192-2.193H12A5.771,5.771,0,0,0,5.359.295a.938.938,0,0,0,.587,1.781,3.89,3.89,0,1,1-2.5,2.542.938.938,0,0,0-1.791-.557,5.771,5.771,0,0,0,.676,4.86H2.192A2.2,2.2,0,0,0,0,11.114v2.719a2.195,2.195,0,0,0,2.192,2.192H3.657V18.28a.937.937,0,0,0,0,1.874V46.29A4.484,4.484,0,0,0,0,50.691v.435a2.195,2.195,0,0,0,2.192,2.192h9.951a2.195,2.195,0,0,0,2.192-2.192v-.435a4.483,4.483,0,0,0-3.657-4.4V20.154h1.494a1.9,1.9,0,0,1,.941.25l.281.161-.377.6a2.2,2.2,0,0,0-.264,1.705A2.155,2.155,0,0,0,13.8,24.232a32.32,32.32,0,0,0,5.453,2.4.938.938,0,0,0,.6-1.777,30.446,30.446,0,0,1-5.136-2.26.294.294,0,0,1-.144-.188.314.314,0,0,1,.038-.247l1.656-2.654a.317.317,0,0,1,.422-.1A32.2,32.2,0,0,0,32,23.03,32.2,32.2,0,0,0,47.312,19.4a.316.316,0,0,1,.422.1l1.656,2.654a.314.314,0,0,1,.038.247.3.3,0,0,1-.144.188A35.917,35.917,0,0,1,32,26.78a39.635,39.635,0,0,1-7.968-.8.937.937,0,1,0-.378,1.836A41.493,41.493,0,0,0,32,28.655a37.816,37.816,0,0,0,18.2-4.423,2.156,2.156,0,0,0,1.044-1.358,2.2,2.2,0,0,0-.264-1.705l-.377-.6.281-.16a1.9,1.9,0,0,1,.941-.25h1.495v15.17a.937.937,0,0,0,1.875,0V20.154h3.271V46.213H55.2V39.748a.937.937,0,0,0-1.875,0V46.29a4.483,4.483,0,0,0-3.657,4.4v.435a2.195,2.195,0,0,0,2.192,2.192h9.951A2.195,2.195,0,0,0,64,51.125v-.435a4.483,4.483,0,0,0-3.657-4.4V20.153a.937.937,0,0,0,0-1.874V16.025ZM1.875,13.833V11.114a.318.318,0,0,1,.317-.318H4.25c.022,0,.044,0,.067,0a5.752,5.752,0,0,0,5.7,0h2.13a.318.318,0,0,1,.317.318v2.719a.317.317,0,0,1-.317.317H2.192a.318.318,0,0,1-.317-.317ZM8.8,16.025v2.254H5.532V16.025Zm3.657,34.665v.435a.318.318,0,0,1-.317.317H2.192a.318.318,0,0,1-.317-.317v-.435a2.605,2.605,0,0,1,2.6-2.6H9.859a2.605,2.605,0,0,1,2.6,2.6ZM8.8,46.213H5.532V20.154H8.8ZM56.832,1.879a3.9,3.9,0,1,1-3.9,3.9,3.9,3.9,0,0,1,3.9-3.9ZM51.539,13.833V11.114a.318.318,0,0,1,.317-.318h2.129a5.752,5.752,0,0,0,5.692,0h2.13a.318.318,0,0,1,.317.318v2.719a.318.318,0,0,1-.317.317H51.856a.318.318,0,0,1-.317-.317ZM62.125,50.691v.435a.318.318,0,0,1-.317.317H51.856a.318.318,0,0,1-.317-.317v-.435a2.605,2.605,0,0,1,2.6-2.6h5.381A2.605,2.605,0,0,1,62.125,50.691ZM58.467,18.279H55.2V16.025h3.271Zm0,0" transform="translate(0 -0.004)" fill="#3cb2f5"/>
</svg>
