<svg xmlns="http://www.w3.org/2000/svg" xmlns:xlink="http://www.w3.org/1999/xlink" width="65" height="65" viewBox="0 0 65 65">
  <defs>
    <filter id="Rectangle_184" x="0" y="0" width="65" height="65" filterUnits="userSpaceOnUse">
      <feOffset dy="2" input="SourceAlpha"/>
      <feGaussianBlur stdDeviation="2.5" result="blur"/>
      <feFlood flood-opacity="0.149"/>
      <feComposite operator="in" in2="blur"/>
      <feComposite in="SourceGraphic"/>
    </filter>
  </defs>
  <g id="E-mail" transform="translate(-678.5 -1273.5)">
    <g transform="matrix(1, 0, 0, 1, 678.5, 1273.5)" filter="url(#Rectangle_184)">
      <rect id="Rectangle_184-2" data-name="Rectangle 184" width="50" height="50" rx="4" transform="translate(7.5 5.5)" fill="#a1c900"/>
    </g>
    <g id="f-email" transform="translate(693 1285)">
      <path id="Path_1700" data-name="Path 1700" d="M0,1H36.271V37.271H0Z" fill="none" fill-rule="evenodd"/>
      <path id="Path_1701" data-name="Path 1701" d="M18.9,16.286a1.063,1.063,0,0,0,.076.08l11.148,8.027a.847.847,0,0,0,.375.145,4.271,4.271,0,0,1-3.75,2.225H6.271a4.268,4.268,0,0,1-3.75-2.227.852.852,0,0,0,.375-.143l11.142-8.021,1.886,1.063a.878.878,0,0,0,.845.007Zm12.12-6.58V22.575c0,.12-.027.232-.036.348L20.529,15.4,31.017,9.7ZM2,9.583l10.412,5.87L2.036,22.925c-.011-.118-.036-.23-.036-.35ZM26.746,5A4.255,4.255,0,0,1,30.79,7.905L16.362,15.74,2.263,7.789A4.258,4.258,0,0,1,6.271,5Z" transform="translate(1.627 3.254)" fill="#fff" fill-rule="evenodd"/>
    </g>
  </g>
</svg>
