<svg xmlns="http://www.w3.org/2000/svg" xmlns:xlink="http://www.w3.org/1999/xlink" width="65" height="65" viewBox="0 0 65 65">
  <defs>
    <filter id="Rectangle_185" x="0" y="0" width="65" height="65" filterUnits="userSpaceOnUse">
      <feOffset dy="2" input="SourceAlpha"/>
      <feGaussianBlur stdDeviation="2.5" result="blur"/>
      <feFlood flood-opacity="0.149"/>
      <feComposite operator="in" in2="blur"/>
      <feComposite in="SourceGraphic"/>
    </filter>
  </defs>
  <g id="LinkedIn" transform="translate(-733.5 -1273.5)">
    <g transform="matrix(1, 0, 0, 1, 733.5, 1273.5)" filter="url(#Rectangle_185)">
      <rect id="Rectangle_185-2" data-name="Rectangle 185" width="50" height="50" rx="4" transform="translate(7.5 5.5)" fill="#2867b2"/>
    </g>
    <g id="linkedin-2" data-name="linkedin" transform="translate(737.685 1275.685)">
      <path id="Path_1694" data-name="Path 1694" d="M0,1H54.99V55.99H0Z" fill="none"/>
      <path id="Path_1695" data-name="Path 1695" d="M11.5,30.746v-16.5H6v16.5ZM8.7,11.492a2.711,2.711,0,0,0,2.791-2.7,2.808,2.808,0,0,0-.742-2A2.563,2.563,0,0,0,8.794,6,2.708,2.708,0,0,0,6,8.794,2.693,2.693,0,0,0,6.743,10.7,2.572,2.572,0,0,0,8.7,11.492ZM30.746,30.746V20.98a7.592,7.592,0,0,0-2.09-5.213A5.484,5.484,0,0,0,24.422,14a5.578,5.578,0,0,0-4.674,2.607V14.249h-5.5v16.5h5.5V21.26a3.068,3.068,0,0,1,.209-1.3,2.636,2.636,0,0,1,2.6-1.864c1.738,0,2.686,1.149,2.686,3.445v9.208Z" transform="translate(10.496 8.747)" fill="#fff" fill-rule="evenodd"/>
    </g>
  </g>
</svg>
