<svg xmlns="http://www.w3.org/2000/svg" width="64" height="50.086" viewBox="0 0 64 50.086">
  <g id="newspaper" transform="translate(0 -49.461)">
    <path id="Path_85" data-name="Path 85" d="M62.756,80.146A2.681,2.681,0,0,0,60,80.41L42.287,91.565a1.055,1.055,0,0,0,1.124,1.785L61.127,82.2c.374-.236.579-.218.609-.2s.154.181.154.623A4.643,4.643,0,0,1,60,86.036L42.828,96.85a2.383,2.383,0,0,1-2.29.434,2.383,2.383,0,0,1-.853-2.169,10.333,10.333,0,0,1,4.268-7.732L63.507,75.07a1.055,1.055,0,0,0,0-1.786L25.933,49.624a1.055,1.055,0,0,0-1.124,0L5.016,62.087A11.778,11.778,0,0,0,0,71.173v.563a11.778,11.778,0,0,0,5.016,9.086L34.454,99.359a1.055,1.055,0,1,0,1.124-1.785L6.14,79.036a9.756,9.756,0,0,1-4.03-7.3v-.563a9.757,9.757,0,0,1,4.03-7.3l19.23-12.109L60.965,74.177,42.828,85.6a12.337,12.337,0,0,0-5.254,9.517,4.3,4.3,0,0,0,1.944,4.016,3.368,3.368,0,0,0,1.647.416,5.3,5.3,0,0,0,2.787-.911L61.127,87.821A6.747,6.747,0,0,0,64,82.616,2.681,2.681,0,0,0,62.756,80.146Z" fill="#3cb2f5"/>
    <path id="Path_86" data-name="Path 86" d="M197.111,125.191a1.006,1.006,0,0,0,.537-1.857L174.412,108.7a1.006,1.006,0,1,0-1.072,1.7l23.235,14.631A1,1,0,0,0,197.111,125.191Z" transform="translate(-147.752 -50.568)" fill="#3cb2f5"/>
    <path id="Path_87" data-name="Path 87" d="M253.8,199.839a1.006,1.006,0,0,0,.535-1.858l-9.816-6.155a1.006,1.006,0,0,0-1.068,1.7l9.816,6.155A1,1,0,0,0,253.8,199.839Z" transform="translate(-208.414 -122.015)" fill="#3cb2f5"/>
    <path id="Path_88" data-name="Path 88" d="M213.968,211.572a1.006,1.006,0,1,0-1.065,1.706l9.891,6.176a1.006,1.006,0,0,0,1.065-1.706Z" transform="translate(-182.211 -138.957)" fill="#3cb2f5"/>
    <path id="Path_89" data-name="Path 89" d="M88.2,128.331l-8.357,5.263a1.006,1.006,0,0,0,0,1.7l9.966,6.2a1.005,1.005,0,0,0,1.077-.009l2.22-1.435a1.006,1.006,0,0,0-1.092-1.689l-1.684,1.089-8.06-5.012,6.462-4.07,7.943,4.98-.926.6a1.006,1.006,0,1,0,1.092,1.689l2.252-1.456a1.006,1.006,0,0,0-.012-1.7l-9.817-6.155A1,1,0,0,0,88.2,128.331Z" transform="translate(-67.953 -67.44)" fill="#3cb2f5"/>
    <path id="Path_90" data-name="Path 90" d="M193.709,238.9a1,1,0,0,0-.323-1.385l-9.967-6.2a1.006,1.006,0,0,0-1.062,1.708l9.967,6.2a1.005,1.005,0,0,0,1.385-.323Z" transform="translate(-156.007 -155.896)" fill="#3cb2f5"/>
    <path id="Path_91" data-name="Path 91" d="M52.547,189.8a1,1,0,0,0,.323,1.385l24.6,15.3a1.006,1.006,0,1,0,1.062-1.708l-24.6-15.3A1,1,0,0,0,52.547,189.8Z" transform="translate(-45.37 -119.665)" fill="#3cb2f5"/>
  </g>
</svg>
