<svg xmlns="http://www.w3.org/2000/svg" width="49.715" height="54" viewBox="0 0 49.715 54">
  <g id="package" transform="translate(-18.8)">
    <path id="Path_60" data-name="Path 60" d="M68.492,12.731a1.415,1.415,0,0,0-.137-.6,1.32,1.32,0,0,0-.923-.729L44.216.137a1.377,1.377,0,0,0-1.2,0L19.575,11.5a1.373,1.373,0,0,0-.775,1.185V41.258a1.358,1.358,0,0,0,.775,1.231L43.019,53.852c.011,0,.011,0,.023.011a.4.4,0,0,1,.1.046c.011,0,.023.011.046.011l.1.034c.011,0,.023.011.034.011.034.011.08.011.114.023h.034c.046,0,.1.011.148.011a.65.65,0,0,0,.148-.011h.034a.4.4,0,0,0,.114-.023c.011,0,.023-.011.034-.011l.1-.034c.011,0,.023-.011.046-.011a.4.4,0,0,0,.1-.046c.011,0,.011,0,.023-.011l23.512-11.4a1.378,1.378,0,0,0,.775-1.231V12.765C68.492,12.753,68.492,12.742,68.492,12.731ZM43.612,2.883l20.333,9.859-7.488,3.636L36.124,6.519Zm0,19.717L23.279,12.742l9.71-4.707,20.333,9.859ZM21.535,14.942,42.244,24.983v25.45L21.535,40.392ZM44.979,50.433V24.983L54.7,20.264V26.92a1.368,1.368,0,1,0,2.735,0V18.931l8.32-4.035v25.45Z" transform="translate(0)" fill="#3cb2f5"/>
  </g>
</svg>
