<svg xmlns="http://www.w3.org/2000/svg" width="64" height="57.235" viewBox="0 0 64 57.235">
  <g id="sale" transform="translate(0 0)">
    <path id="Path_78" data-name="Path 78" d="M59.75,9.934h-2.5l0-4.474A5.453,5.453,0,0,0,51.805.011L32.813,0h0a4.021,4.021,0,0,0-2.862,1.186L1.595,29.539a5.447,5.447,0,0,0,0,7.7L20,55.642a5.454,5.454,0,0,0,7.7,0L45.55,37.791a1.25,1.25,0,1,0-1.768-1.768L25.931,53.875a2.95,2.95,0,0,1-4.167,0l-18.4-18.4a2.947,2.947,0,0,1,0-4.168L31.716,2.954A1.538,1.538,0,0,1,32.811,2.5h0L51.8,2.511A2.95,2.95,0,0,1,54.75,5.459l-.006,10.475h-5.63a1.745,1.745,0,0,1-1.241-.518,4.614,4.614,0,1,0-2.729.283,4.257,4.257,0,0,0,3.97,2.735h5.629l0,5.992a1.535,1.535,0,0,1-.454,1.094l-3.432,3.432a1.25,1.25,0,1,0,1.768,1.768l3.432-3.432a4.023,4.023,0,0,0,1.186-2.86l0-5.994H59.75a4.25,4.25,0,0,0,0-8.5Zm-15.186-.24a2.1,2.1,0,0,1,3.307.426,4.267,4.267,0,0,0-2.844,2.9,2.1,2.1,0,0,1-.463-3.329Zm15.186,6.24H57.244l0-3.5h2.5a1.75,1.75,0,1,1,0,3.5Zm0,0" fill="#3cb2f5"/>
    <path id="Path_79" data-name="Path 79" d="M161.091,216.126a1.229,1.229,0,0,0,1.515.856l12.632-3.516a1.23,1.23,0,1,0-.66-2.371l-12.632,3.516A1.231,1.231,0,0,0,161.091,216.126Zm0,0" transform="translate(-140.816 -184.62)" fill="#3cb2f5"/>
    <path id="Path_80" data-name="Path 80" d="M199.028,257.939a3.628,3.628,0,1,0,5.131,0A3.6,3.6,0,0,0,199.028,257.939Zm3.391,3.391a1.167,1.167,0,1,1,0-1.651,1.168,1.168,0,0,1,0,1.651Zm0,0" transform="translate(-173.17 -224.694)" fill="#3cb2f5"/>
    <path id="Path_81" data-name="Path 81" d="M209.125,161.819a3.633,3.633,0,1,0-2.566,1.061A3.632,3.632,0,0,0,209.125,161.819Zm-3.391-3.391a1.167,1.167,0,1,1,0,1.651A1.159,1.159,0,0,1,205.734,158.428Zm0,0" transform="translate(-177.515 -136.127)" fill="#3cb2f5"/>
    <path id="Path_82" data-name="Path 82" d="M59.57,88.157a1.212,1.212,0,0,0-1.74,0l-3.5,3.572a1.276,1.276,0,0,0,0,1.778l15.6,15.941a1.213,1.213,0,0,0,1.74,0L95.006,85.614a1.276,1.276,0,0,0,0-1.778L79.4,67.9a1.212,1.212,0,0,0-1.74,0L64.79,81.046a1.276,1.276,0,0,0,0,1.778,1.213,1.213,0,0,0,1.74,0l12-12.262L92.4,84.725,70.807,106.78,56.944,92.618l2.626-2.683a1.276,1.276,0,0,0,0-1.778Zm0,0" transform="translate(-47.332 -59.218)" fill="#3cb2f5"/>
    <path id="Path_83" data-name="Path 83" d="M376.851,256.973a1.231,1.231,0,1,0,.87.361A1.239,1.239,0,0,0,376.851,256.973Zm0,0" transform="translate(-328.639 -224.829)" fill="#3cb2f5"/>
    <path id="Path_84" data-name="Path 84" d="M112.772,202.522a1.229,1.229,0,1,0-.869.36A1.232,1.232,0,0,0,112.772,202.522Zm0,0" transform="translate(-96.829 -175.351)" fill="#3cb2f5"/>
  </g>
</svg>
