<svg xmlns="http://www.w3.org/2000/svg" width="64" height="40.484" viewBox="0 0 64 40.484">
  <g id="shipped_1_" data-name="shipped (1)" transform="translate(0 -94.062)">
    <g id="Group_50" data-name="Group 50" transform="translate(0 94.062)">
      <g id="Group_49" data-name="Group 49">
        <path id="Path_14" data-name="Path 14" d="M59.52,111.225,57.862,104.6a1,1,0,0,0,.793-.98v-1.069a4.214,4.214,0,0,0-4.209-4.209H46.9v-2.2a2.073,2.073,0,0,0-2.071-2.071H6.347a2.073,2.073,0,0,0-2.071,2.071V114.3a1,1,0,1,0,2,0V96.133a.067.067,0,0,1,.067-.067h38.48a.067.067,0,0,1,.067.067V114.3a1,1,0,1,0,2,0v-1.136H58.724a3.279,3.279,0,0,1,3.114,2.271H58.722a1,1,0,0,0-1,1v2.138a3.143,3.143,0,0,0,3.14,3.14H62v4.409h-2.62a6.345,6.345,0,0,0-12,0H46.9V118.58a1,1,0,0,0-2,0v7.549H24.1a6.345,6.345,0,0,0-12,0H6.347a.067.067,0,0,1-.067-.067v-2.2h4.342a1,1,0,1,0,0-2H1a1,1,0,1,0,0,2H4.276v2.2a2.073,2.073,0,0,0,2.071,2.071H11.76c0,.022,0,.044,0,.067a6.347,6.347,0,0,0,12.693,0c0-.023,0-.044,0-.067H47.033c0,.022,0,.044,0,.067a6.347,6.347,0,0,0,12.693,0c0-.023,0-.044,0-.067H63a1,1,0,0,0,1-1V116.442A5.286,5.286,0,0,0,59.52,111.225ZM46.9,100.342h7.549a2.207,2.207,0,0,1,2.2,2.2v.067H46.9Zm0,10.823v-6.547h8.9l1.637,6.547ZM18.1,132.542a4.342,4.342,0,1,1,4.342-4.342A4.347,4.347,0,0,1,18.1,132.542Zm35.274,0A4.342,4.342,0,1,1,57.72,128.2,4.347,4.347,0,0,1,53.378,132.542ZM62,119.716H60.86a1.137,1.137,0,0,1-1.136-1.136v-1.136H62v2.272Z" transform="translate(0 -94.062)" fill="#3cb2f5"/>
      </g>
    </g>
    <g id="Group_52" data-name="Group 52" transform="translate(15.964 125.603)">
      <g id="Group_51" data-name="Group 51">
        <path id="Path_15" data-name="Path 15" d="M130.467,350.6a2.2,2.2,0,1,0,2.2,2.2A2.2,2.2,0,0,0,130.467,350.6Z" transform="translate(-128.267 -350.597)" fill="#3cb2f5"/>
      </g>
    </g>
    <g id="Group_54" data-name="Group 54" transform="translate(50.514 125.603)">
      <g id="Group_53" data-name="Group 53">
        <path id="Path_16" data-name="Path 16" d="M412.655,350.6a2.2,2.2,0,1,0,2.2,2.2A2.2,2.2,0,0,0,412.655,350.6Z" transform="translate(-410.455 -350.597)" fill="#3cb2f5"/>
      </g>
    </g>
    <g id="Group_56" data-name="Group 56" transform="translate(25.075 121.763)">
      <g id="Group_55" data-name="Group 55" transform="translate(0 0)">
        <path id="Path_17" data-name="Path 17" d="M222.192,316.393h-15.9a1.065,1.065,0,0,0,0,2.13h15.9a1.065,1.065,0,1,0,0-2.13Z" transform="translate(-205.227 -316.393)" fill="#3cb2f5"/>
      </g>
    </g>
    <g id="Group_58" data-name="Group 58" transform="translate(2.271 117.501)">
      <g id="Group_57" data-name="Group 57">
        <path id="Path_18" data-name="Path 18" d="M31.8,282.188H18.167a1.065,1.065,0,1,0,0,2.13H31.8a1.065,1.065,0,0,0,0-2.13Z" transform="translate(-17.102 -282.188)" fill="#3cb2f5"/>
      </g>
    </g>
    <g id="Group_60" data-name="Group 60" transform="translate(17.761 103.44)">
      <g id="Group_59" data-name="Group 59" transform="translate(0 0)">
        <path id="Path_19" data-name="Path 19" d="M163.087,171.334a1.065,1.065,0,0,0-1.506,0l-9.468,9.468-4.926-4.926a1.065,1.065,0,1,0-1.506,1.506l5.679,5.679a1.065,1.065,0,0,0,1.506,0l10.221-10.221A1.065,1.065,0,0,0,163.087,171.334Z" transform="translate(-145.37 -171.023)" fill="#3cb2f5"/>
      </g>
    </g>
  </g>
</svg>
