<svg xmlns="http://www.w3.org/2000/svg" width="54" height="64" viewBox="0 0 54 64">
  <g id="stopwatch" transform="translate(-40)">
    <path id="Path_20" data-name="Path 20" d="M86.092,17.908a27.241,27.241,0,0,0-4.625-3.716l1.8-3.126,2.018,1.165a1,1,0,1,0,1-1.732L80.554,7.188a1,1,0,1,0-1,1.732l1.985,1.146-1.8,3.115A26.818,26.818,0,0,0,68,10.02V9.9a5,5,0,1,0-2,0v.121a27,27,0,1,0,20.092,7.888ZM64,5a3,3,0,1,1,4,2.828V5a1,1,0,0,0-2,0V7.828A3,3,0,0,1,64,5Zm3,57A25,25,0,1,1,92,37,25.028,25.028,0,0,1,67,62Z" fill="#3cb2f5"/>
    <path id="Path_21" data-name="Path 21" d="M114.6,122.953a1,1,0,1,0-1.7,1.049,20.992,20.992,0,1,1-6.9-6.9,1,1,0,0,0,1.049-1.7,22.992,22.992,0,1,0,7.554,7.552Z" transform="translate(-28 -98)" fill="#3cb2f5"/>
    <path id="Path_22" data-name="Path 22" d="M365.663,158.557a21.258,21.258,0,0,1,1.654,1.654,1,1,0,1,0,1.49-1.334,23.209,23.209,0,0,0-1.81-1.81,1,1,0,0,0-1.334,1.49Z" transform="translate(-284.663 -137.21)" fill="#3cb2f5"/>
    <path id="Path_23" data-name="Path 23" d="M255.242,145.055A18.917,18.917,0,0,0,249,144a1,1,0,0,0-1,1v7h0v6h0v5a1,1,0,0,0,.293.707l12.728,12.728a1,1,0,0,0,1.414,0,19.008,19.008,0,0,0,4.995-18.058.973.973,0,0,0-.03-.123,18.877,18.877,0,0,0-1.741-4.383.988.988,0,0,0-.1-.186,19.1,19.1,0,0,0-2.534-3.494,1.013,1.013,0,0,0-.1-.115c-.02-.02-.04-.037-.061-.055a19.054,19.054,0,0,0-7.48-4.917A.99.99,0,0,0,255.242,145.055Zm2.133,3.156L250,155.586v-3.171l5.231-5.231A16.937,16.937,0,0,1,257.375,148.211Zm3.431,2.569L250,161.586v-3.172l9.088-9.088A17.132,17.132,0,0,1,260.806,150.78Zm2.675,3.325L252.5,165.086l-1.586-1.586,11.247-11.247A17.077,17.077,0,0,1,263.481,154.1Zm1.845,4.155-9.826,9.826-1.586-1.586,10.552-10.552A16.865,16.865,0,0,1,265.326,158.26ZM266,163c0,.2,0,.4-.011.6l-7.489,7.489-1.586-1.586,8.914-8.914A17.07,17.07,0,0,1,266,163Zm-12.912-16.5L250,149.586v-3.557A16.93,16.93,0,0,1,253.088,146.5Zm8.62,27.8-1.793-1.793,5.651-5.651A16.85,16.85,0,0,1,261.708,174.293Z" transform="translate(-182 -126)" fill="#3cb2f5"/>
  </g>
</svg>
