<svg xmlns="http://www.w3.org/2000/svg" width="64" height="64" viewBox="0 0 64 64">
  <g id="_04_-_hodiny" data-name="04 - hodiny" transform="translate(-669 -1954)">
    <g id="XMLID_1031_" transform="translate(669 1954)">
      <g id="XMLID_971_" transform="translate(0 0)">
        <g id="XMLID_977_">
          <path id="XMLID_1030_" d="M57.171,12.242h1.977a1.249,1.249,0,0,0,0-2.5H54.4a1.249,1.249,0,0,0-1.249,1.249V15.74a1.249,1.249,0,1,0,2.5,0V14.365A29.5,29.5,0,1,1,32,2.5a29.946,29.946,0,0,1,3.6.217,1.249,1.249,0,1,0,.3-2.48A32.454,32.454,0,0,0,32,0,32,32,0,0,0,9.373,54.627a32,32,0,0,0,47.8-42.385Z" transform="translate(0 0)" fill="#fff"/>
          <path id="XMLID_1029_" d="M70.572,75.873a1.246,1.246,0,0,0-1.719.386A23.789,23.789,0,1,0,76.3,68.828a1.246,1.246,0,1,0,1.329,2.108,21.306,21.306,0,1,1-3.719,33.1,21.441,21.441,0,0,1-2.95-26.446A1.246,1.246,0,0,0,70.572,75.873Z" transform="translate(-56.973 -56.974)" fill="#fff"/>
          <path id="XMLID_1028_" d="M377.428,248.848h1.553a1.259,1.259,0,1,0,0-2.518h-1.553a1.259,1.259,0,0,0,0,2.518Z" transform="translate(-329.203 -215.569)" fill="#fff"/>
          <path id="XMLID_1004_" d="M103.835,247.265a1.259,1.259,0,0,0,1.259,1.259h1.553a1.259,1.259,0,1,0,0-2.518h-1.553A1.259,1.259,0,0,0,103.835,247.265Z" transform="translate(-90.871 -215.285)" fill="#fff"/>
          <path id="XMLID_1001_" d="M248.848,106.647v-1.553a1.259,1.259,0,0,0-2.518,0v1.553a1.259,1.259,0,1,0,2.518,0Z" transform="translate(-215.569 -90.871)" fill="#fff"/>
          <path id="XMLID_1415_" d="M246.006,377.428v1.553a1.259,1.259,0,1,0,2.518,0v-1.553a1.259,1.259,0,0,0-2.518,0Z" transform="translate(-215.285 -329.203)" fill="#fff"/>
          <path id="XMLID_996_" d="M191.122,159.192a1.259,1.259,0,0,0-1.781,1.781l4.267,4.267a4.337,4.337,0,1,0,7.648,0l8.609-8.609a1.259,1.259,0,0,0-1.781-1.781l-8.609,8.609a4.328,4.328,0,0,0-4.087,0Zm8.13,8.091a1.819,1.819,0,1,1-1.819-1.819A1.821,1.821,0,0,1,199.251,167.283Z" transform="translate(-165.457 -135.238)" fill="#fff"/>
          <path id="XMLID_980_" d="M120.327,120.327a1.258,1.258,0,1,0-.89.369A1.264,1.264,0,0,0,120.327,120.327Z" transform="translate(-103.42 -103.42)" fill="#fff"/>
          <path id="XMLID_979_" d="M316.7,12.4a1.26,1.26,0,1,0-.89-.369A1.264,1.264,0,0,0,316.7,12.4Z" transform="translate(-276.047 -8.634)" fill="#fff"/>
        </g>
      </g>
    </g>
  </g>
</svg>
