<svg xmlns="http://www.w3.org/2000/svg" xmlns:xlink="http://www.w3.org/1999/xlink" width="65" height="65" viewBox="0 0 65 65">
  <defs>
    <filter id="Rectangle_183" x="0" y="0" width="65" height="65" filterUnits="userSpaceOnUse">
      <feOffset dy="2" input="SourceAlpha"/>
      <feGaussianBlur stdDeviation="2.5" result="blur"/>
      <feFlood flood-opacity="0.149"/>
      <feComposite operator="in" in2="blur"/>
      <feComposite in="SourceGraphic"/>
    </filter>
  </defs>
  <g id="Twitter" transform="translate(-623.5 -1273.5)">
    <g transform="matrix(1, 0, 0, 1, 623.5, 1273.5)" filter="url(#Rectangle_183)">
      <rect id="Rectangle_183-2" data-name="Rectangle 183" width="50" height="50" rx="4" transform="translate(7.5 5.5)" fill="#1da1f2"/>
    </g>
    <g id="twitter-2" data-name="twitter" transform="translate(641 1288)">
      <path id="Path_1698" data-name="Path 1698" d="M0,1H30V31H0Z" transform="translate(0 0)" fill="none"/>
      <path id="Path_1699" data-name="Path 1699" d="M29.5,6.7a11.228,11.228,0,0,1-2.9,2.93v.7a16.188,16.188,0,0,1-4.56,11.161,15.574,15.574,0,0,1-12.1,5.01A16.485,16.485,0,0,1,1,23.921a13.177,13.177,0,0,0,1.389.117,11.577,11.577,0,0,0,7.245-2.46,5.994,5.994,0,0,1-3.381-1.143A5.389,5.389,0,0,1,4.2,17.653a7.518,7.518,0,0,0,1.087.117,6.936,6.936,0,0,0,1.57-.235,5.937,5.937,0,0,1-3.351-1.962,5.305,5.305,0,0,1-1.359-3.6v-.06a5.624,5.624,0,0,0,2.656.705A5.284,5.284,0,0,1,2.209,7.867a5.525,5.525,0,0,1,.783-2.812,15.989,15.989,0,0,0,12.017,5.917,4.951,4.951,0,0,1-.12-1.289,5.406,5.406,0,0,1,1.691-4.042A5.745,5.745,0,0,1,20.744,4a5.664,5.664,0,0,1,4.227,1.815A11.075,11.075,0,0,0,28.715,4.41a5.234,5.234,0,0,1-2.6,3.165A10.212,10.212,0,0,0,29.5,6.7Z" transform="translate(0.5 1.5)" fill="#fff" fill-rule="evenodd"/>
    </g>
  </g>
</svg>
