<svg id="logo_ap" data-name="logo ap" xmlns="http://www.w3.org/2000/svg" width="337.2" height="57.322" viewBox="0 0 337.2 57.322">
  <g id="Layer_1" data-name="Layer 1">
    <path id="Path_1" data-name="Path 1" d="M174.9,53.113l.907-4.925L187.53,35.872h-8.7l.994-5.582h18.9l-.843,4.832L185.907,47.473h10.129l-.965,5.64Z" transform="translate(-73.199 -12.677)" fill="#fff" fill-rule="evenodd"/>
    <path id="Path_2" data-name="Path 2" d="M157.26,47.391l5.4-30.551h8.664l-5.39,30.551Z" transform="translate(-65.817 -7.048)" fill="#fff" fill-rule="evenodd"/>
    <path id="Path_3" data-name="Path 3" d="M130.8,49.521a6.669,6.669,0,0,1-2.326,2.151V47.742h.128a3.175,3.175,0,0,0,1.651-1.163,5.361,5.361,0,0,0,1.058-2.588l.314-1.744a8.92,8.92,0,0,0-3.152.5V38.206c1.163-.1,2.436-.157,3.774-.157l.221-.779a2.285,2.285,0,0,0-.657-1.808,2.471,2.471,0,0,0-1.744-.529,3.971,3.971,0,0,0-1.593.308V29.833a25.586,25.586,0,0,1,3.169-.233q4.652,0,6.92,1.215a4.964,4.964,0,0,1,2.617,4.768v1.163c-.093.4-.151.686-.186.837l-1.867,10.792a15.439,15.439,0,0,0-.221,2.495,8.141,8.141,0,0,0,.186,1.96h-8.414l-.157-.837Zm-2.326,2.151c-.343.186-.686.343-1.029.529a12.63,12.63,0,0,1-4.954,1,8.077,8.077,0,0,1-4.652-1.25,4.751,4.751,0,0,1-1.971-4.094v-.93c.622-3.431,2.838-5.9,6.611-7.362a24.166,24.166,0,0,1,5.983-1.337v4.518a9.42,9.42,0,0,0-1.087.5,4.117,4.117,0,0,0-2.093,2.559,2.774,2.774,0,0,0,.407,1.651,1.71,1.71,0,0,0,1.436.529l1.337-.221Zm0-16.433a3.646,3.646,0,0,0-.715.343,2.762,2.762,0,0,0-1.349,1.843l-8.071-.686a10.193,10.193,0,0,1,5.175-5.489,16.2,16.2,0,0,1,4.977-1.419Z" transform="translate(-48.49 -12.388)" fill="#fff" fill-rule="evenodd"/>
    <path id="Path_4" data-name="Path 4" d="M27.126,23.83a6.513,6.513,0,0,1,2.4-.471c3.082,0,4.018,2.122,3.274,4.652-1.814,0-3.71.093-5.675.285Zm0,24.568a9.35,9.35,0,0,0,3.489-3.21l-.378,3.646.186,1.279h12.56a18.671,18.671,0,0,1,.064-6.675c.529-2.907,1.25-6.076,1.872-9.193l4.466,19.764L27.126,59Zm0-5.89.215-.064c3.524-.872,3.995-5.175,4.524-8.141a14.537,14.537,0,0,0-4.739.779ZM32.609,15.44l7.641-1.71.686,2.96a24.734,24.734,0,0,0-8.327-1.25M0,22.83l18.392-4.146A14.991,14.991,0,0,0,12.037,26.1l12.031,1a4.867,4.867,0,0,1,3.059-3.274v4.46c-8.263.837-17.119,3.9-18.741,12.967-.308,6.577,3.681,9.385,9.821,9.385a18.485,18.485,0,0,0,8.92-2.245V59L9.135,63.069ZM27.126,35.041c-2.215.779-4.181,2.215-4.71,4.553A4.105,4.105,0,0,0,23,42.025a2.535,2.535,0,0,0,2.122.808l1.994-.337Z" transform="translate(0 -5.746)" fill="#fff" fill-rule="evenodd"/>
    <path id="Path_5" data-name="Path 5" d="M27.664,4.652,48.4,0l9.135,40.221L46.126,42.809a22.951,22.951,0,0,1,.308-5.117c1.064-6.076,3.059-12.874,3.059-19.084,0-8.106-7.955-8.92-14.217-8.92a30.958,30.958,0,0,0-7.612.878Zm0,16.09v2.181a51.287,51.287,0,0,1,8.548-.686c.744-2.524-.192-4.652-3.274-4.652a5.676,5.676,0,0,0-5.274,3.152m0,26.254,11.664-2.622H33.811l-.163-1.279.372-3.646a11.425,11.425,0,0,1-6.332,4.489Zm0-9.978a7.752,7.752,0,0,0,.878.058l2.21-.4c3.524-.872,3.995-5.175,4.524-8.141A12.375,12.375,0,0,0,27.664,30.9ZM8.15,9.1,27.664,4.652v5.919c-5.3,1.308-9.972,4.239-12.217,9.78l12.031,1c.064-.221.128-.407.186-.581v2.181c-5.919.994-11.688,3.332-14.461,8.449ZM27.664,30.9a5.233,5.233,0,0,0-1.837,2.96,4.105,4.105,0,0,0,.581,2.431,2.053,2.053,0,0,0,1.244.75Zm0,13.031v3.088L17.285,49.344l-1.279-5.553a12.938,12.938,0,0,0,5.611,1.093,20.143,20.143,0,0,0,6.047-.965" transform="translate(-3.411)" fill="#fff" fill-rule="evenodd"/>
    <path id="Path_6" data-name="Path 6" d="M226.9,49.534a6.524,6.524,0,0,1-2.326,2.151V47.755h.157a3.175,3.175,0,0,0,1.651-1.163A5.42,5.42,0,0,0,227.446,44l.308-1.744a9.2,9.2,0,0,0-3.181.5V38.218c1.163-.1,2.465-.157,3.8-.157l.221-.779a2.285,2.285,0,0,0-.657-1.808,2.518,2.518,0,0,0-1.744-.529,4.233,4.233,0,0,0-1.622.308V29.845a26.05,26.05,0,0,1,3.181-.215c3.117,0,5.425.4,6.891,1.215a4.934,4.934,0,0,1,2.652,4.768v1.163c-.093.4-.157.686-.186.837l-1.855,10.769a15.361,15.361,0,0,0-.215,2.495,7.833,7.833,0,0,0,.186,1.96h-8.478L226.62,52Zm-2.326,2.151c-.308.186-.651.343-1.029.529a12.345,12.345,0,0,1-4.925,1,8.077,8.077,0,0,1-4.652-1.25A4.768,4.768,0,0,1,212,47.871l.035-.93c.622-3.431,2.832-5.9,6.606-7.362a24.224,24.224,0,0,1,5.954-1.337V42.76c-.372.157-.715.314-1.058.5a4.012,4.012,0,0,0-2.088,2.559,2.774,2.774,0,0,0,.4,1.651,1.646,1.646,0,0,0,1.407.529l1.337-.221Zm0-16.433a3.6,3.6,0,0,0-.686.343,2.756,2.756,0,0,0-1.337,1.843l-8.077-.686a10.089,10.089,0,0,1,5.175-5.489,15.782,15.782,0,0,1,4.913-1.419Z" transform="translate(-88.722 -12.401)" fill="#fff" fill-rule="evenodd"/>
    <path id="Path_7" data-name="Path 7" d="M272.481,29.655h8.141l-.611,3.663a8.9,8.9,0,0,1,3.111-3.489A7.059,7.059,0,0,1,286.459,29a6.978,6.978,0,0,1,5.681,2.634,10.919,10.919,0,0,1,2.151,7.117,17.223,17.223,0,0,1-2.966,9.85,9.068,9.068,0,0,1-7.85,4.4,6.164,6.164,0,0,1-5.7-3.216l-1.646,9.955H267.41Zm7.3,8.21a52.524,52.524,0,0,0-.983,6.879,3.07,3.07,0,0,0,.622,1.989,2.128,2.128,0,0,0,1.744.768,2.454,2.454,0,0,0,2.122-1.128,11.385,11.385,0,0,0,1.378-3.995,23.115,23.115,0,0,0,.581-4.239c0-2.245-.826-3.373-2.489-3.373C281.342,34.766,280.342,35.8,279.784,37.865Z" transform="translate(-111.917 -12.135)" fill="#fff"/>
    <path id="Path_8" data-name="Path 8" d="M317.335,29.657h7.612l-.913,5.512Q326.418,29,331.308,29a6.826,6.826,0,0,1,1.07.11l-1.023,8.141c-.779-.041-1.3-.064-1.558-.064a5.684,5.684,0,0,0-4.152,1.32,8.676,8.676,0,0,0-1.89,4.687L322.2,52.5H313.48Z" transform="translate(-131.198 -12.137)" fill="#fff"/>
    <path id="Path_9" data-name="Path 9" d="M367.561,42.842H351.82a12.737,12.737,0,0,0-.1,1.361,2.942,2.942,0,0,0,.965,2.326,3.559,3.559,0,0,0,2.431.837,4.022,4.022,0,0,0,3.937-2.907l7.687,1.244A12.135,12.135,0,0,1,361.9,51.18a13.746,13.746,0,0,1-7.408,2.076,11.811,11.811,0,0,1-8.292-2.907,10.213,10.213,0,0,1-3.2-7.891A13.089,13.089,0,0,1,356.571,29.2a11.1,11.1,0,0,1,8.181,3.024,10.8,10.8,0,0,1,3.041,8.042A15.557,15.557,0,0,1,367.561,42.842Zm-8.234-4.39a7.381,7.381,0,0,0,.116-1.087,3.192,3.192,0,0,0-.744-2.122,2.6,2.6,0,0,0-2.128-.925,3.768,3.768,0,0,0-2.628,1.1,4.884,4.884,0,0,0-1.448,3.018Z" transform="translate(-143.551 -12.221)" fill="#fff"/>
    <path id="Path_10" data-name="Path 10" d="M389.706,29.657h7.774l-.581,3.53A7.835,7.835,0,0,1,403.935,29a5.735,5.735,0,0,1,5.815,4.2,7.28,7.28,0,0,1,6.832-4.07A6.8,6.8,0,0,1,421.42,30.8a6.018,6.018,0,0,1,1.808,4.594,15.118,15.118,0,0,1-.2,2.239L420.542,52.5h-8.693l2.285-13.548a11.524,11.524,0,0,0,.157-1.6q0-1.989-1.832-1.989a2.326,2.326,0,0,0-1.837.837,7.05,7.05,0,0,0-1.163,3.21L407.267,52.5h-8.426l2.285-13.548a13.051,13.051,0,0,0,.2-1.744,1.744,1.744,0,0,0-.581-1.494,1.965,1.965,0,0,0-1.221-.454,3.489,3.489,0,0,0-1.582.535q-.954.535-1.378,3.175l-2.285,13.548h-8.4Z" transform="translate(-161.499 -12.137)" fill="#fff"/>
    <path id="Path_11" data-name="Path 11" d="M463.711,23.852,459.885,46.7H451l3.826-22.846Zm1.471-8.722-1.128,6.716h-8.873L456.3,15.13Z" transform="translate(-188.753 -6.332)" fill="#fff"/>
    <path id="Path_12" data-name="Path 12" d="M498.657,30.122,494.83,52.968H486.62l.75-4.315q-2.739,4.908-7.606,4.908a6.333,6.333,0,0,1-4.582-1.582,5.175,5.175,0,0,1-1.663-3.908,25.819,25.819,0,0,1,.454-3.663l2.372-14.3h8.763l-2.192,13.072a21.526,21.526,0,0,0-.3,2.239c0,1.134.517,1.7,1.558,1.7q2.966,0,3.919-5.7l1.9-11.31Z" transform="translate(-198.177 -12.602)" fill="#fff"/>
    <path id="Path_13" data-name="Path 13" d="M519.486,29.657h7.774l-.581,3.53A7.878,7.878,0,0,1,533.715,29a5.741,5.741,0,0,1,5.815,4.2,7.28,7.28,0,0,1,6.832-4.07,6.8,6.8,0,0,1,4.85,1.71,6,6,0,0,1,1.8,4.553,15.105,15.105,0,0,1-.2,2.239L550.322,52.5h-8.693l2.285-13.548a11.524,11.524,0,0,0,.157-1.6q0-1.989-1.826-1.989a2.326,2.326,0,0,0-1.843.837,7.212,7.212,0,0,0-1.163,3.21l-2.2,13.095H528.65l2.285-13.548a12.149,12.149,0,0,0,.2-1.744,1.744,1.744,0,0,0-.581-1.494,1.965,1.965,0,0,0-1.221-.454,3.489,3.489,0,0,0-1.582.535q-.942.535-1.378,3.175l-2.285,13.548H515.66Z" transform="translate(-215.814 -12.137)" fill="#fff"/>
  </g>
</svg>
