<?xml version="1.0" encoding="UTF-8" standalone="no"?>
<!DOCTYPE svg PUBLIC "-//W3C//DTD SVG 1.1//EN" "http://www.w3.org/Graphics/SVG/1.1/DTD/svg11.dtd">
<svg width="100%" height="100%" viewBox="0 0 50 50" version="1.1" xmlns="http://www.w3.org/2000/svg" xmlns:xlink="http://www.w3.org/1999/xlink" xml:space="preserve" xmlns:serif="http://www.serif.com/" style="fill-rule:evenodd;clip-rule:evenodd;stroke-linejoin:round;stroke-miterlimit:2;">
    <g>
        <path id="Rectangle_185-2" d="M50,4C50,1.792 48.208,0 46,0L4,0C1.792,0 0,1.792 0,4L0,46C0,48.208 1.792,50 4,50L46,50C48.208,50 50,48.208 50,46L50,4Z" style="fill:rgb(40,103,178);"/>
    </g>
    <g id="Path_1695" transform="matrix(1,0,0,1,7.181,5.432)">
        <path d="M11.5,30.746L11.5,14.246L6,14.246L6,30.746L11.5,30.746ZM8.7,11.492C8.727,11.493 8.753,11.493 8.78,11.493C10.264,11.493 11.486,10.275 11.491,8.792C11.516,8.054 11.25,7.335 10.749,6.792C10.241,6.26 9.529,5.971 8.794,6C8.765,5.999 8.736,5.999 8.707,5.999C7.221,5.999 5.999,7.221 5.999,8.707C5.999,8.736 5.999,8.765 6,8.794C5.987,9.502 6.254,10.187 6.743,10.7C7.252,11.232 7.965,11.52 8.7,11.492ZM30.746,30.746L30.746,20.98C30.741,19.04 29.993,17.173 28.656,15.767C27.571,14.588 26.023,13.942 24.422,14C22.524,14.016 20.759,15 19.748,16.607L19.748,14.249L14.248,14.249L14.248,30.749L19.748,30.749L19.748,21.26C19.723,20.817 19.794,20.373 19.957,19.96C20.303,18.827 21.373,18.06 22.557,18.096C24.295,18.096 25.243,19.245 25.243,21.541L25.243,30.749L30.746,30.746Z" style="fill:white;"/>
    </g>
</svg>
