<?xml version="1.0" encoding="UTF-8" standalone="no"?>
<!DOCTYPE svg PUBLIC "-//W3C//DTD SVG 1.1//EN" "http://www.w3.org/Graphics/SVG/1.1/DTD/svg11.dtd">
<svg width="100%" height="100%" viewBox="0 0 50 50" version="1.1" xmlns="http://www.w3.org/2000/svg" xmlns:xlink="http://www.w3.org/1999/xlink" xml:space="preserve" xmlns:serif="http://www.serif.com/" style="fill-rule:evenodd;clip-rule:evenodd;stroke-linejoin:round;stroke-miterlimit:2;">
    <g>
        <path id="Rectangle_183-2" d="M50,4C50,1.792 48.208,0 46,0L4,0C1.792,0 0,1.792 0,4L0,46C0,48.208 1.792,50 4,50L46,50C48.208,50 50,48.208 50,46L50,4Z" style="fill:rgb(29,161,242);"/>
    </g>
    <g id="twitter-2" transform="matrix(1,0,0,1,10,9)">
        <rect id="Path_1698" x="0" y="1" width="30" height="30" style="fill:none;fill-rule:nonzero;"/>
        <g id="Path_1699" transform="matrix(1,0,0,1,0.5,1.5)">
            <path d="M29.5,6.7C28.722,7.847 27.739,8.841 26.6,9.63L26.6,10.33C26.574,14.497 24.939,18.498 22.04,21.491C18.941,24.856 14.511,26.69 9.94,26.501C6.774,26.517 3.67,25.621 1,23.921C1.461,23.984 1.924,24.024 2.389,24.038C5.012,24.063 7.568,23.195 9.634,21.578C8.417,21.549 7.238,21.15 6.253,20.435C5.282,19.758 4.56,18.78 4.2,17.653C4.559,17.718 4.922,17.757 5.287,17.77C5.818,17.752 6.344,17.673 6.857,17.535C5.552,17.275 4.371,16.584 3.506,15.573C2.619,14.586 2.133,13.3 2.147,11.973L2.147,11.913C2.96,12.364 3.873,12.606 4.803,12.618C3.134,11.632 2.135,9.804 2.209,7.867C2.213,6.877 2.484,5.905 2.992,5.055C5.937,8.689 10.333,10.854 15.009,10.972C14.913,10.549 14.872,10.116 14.889,9.683C14.857,8.158 15.472,6.689 16.58,5.641C17.689,4.554 19.192,3.962 20.744,4C22.346,3.98 23.883,4.64 24.971,5.815C26.294,5.578 27.563,5.102 28.715,4.41C28.314,5.774 27.375,6.917 26.115,7.575C27.285,7.48 28.43,7.184 29.5,6.7Z" style="fill:white;"/>
        </g>
    </g>
</svg>
